<svg width="250" height="450" viewBox="0 0 250 450" fill="none" xmlns="http://www.w3.org/2000/svg">
<path d="M125 0C100 0 75 25 75 50V100C75 125 100 150 125 150H175C200 150 225 125 225 100V50C225 25 200 0 175 0H125Z" fill="#1A2B42"/>
<path d="M125 450C150 450 175 425 175 400V350C175 325 150 300 125 300H75C50 300 25 325 25 350V400C25 425 50 450 75 450H125Z" fill="#1A2B42"/>
<path d="M125 150C100 150 75 175 75 200V250C75 275 100 300 125 300H175C200 300 225 275 225 250V200C225 175 200 150 175 150H125Z" fill="#1A2B42"/>
<path d="M125 300C150 300 175 275 175 250V200C175 175 150 150 125 150H75C50 150 25 175 25 200V250C25 275 50 300 75 300H125Z" fill="#1A2B42"/>

<path d="M100 75H200V85H100V75Z" fill="white"/>
<path d="M50 165H150V175H50V165Z" fill="white"/>
<path d="M100 215H200V225H100V215Z" fill="white"/>
<path d="M50 305H150V315H50V305Z" fill="white"/>
<path d="M100 355H200V365H100V355Z" fill="white"/>

<path d="M125 0C100 0 75 25 75 50V100C75 125 100 150 125 150H175C200 150 225 125 225 100V50C225 25 200 0 175 0H125Z" fill="#1A2B42"/>
<path d="M125 450C150 450 175 425 175 400V350C175 325 150 300 125 300H75C50 300 25 325 25 350V400C25 425 50 450 75 450H125Z" fill="#1A2B42"/>
<path d="M125 150C100 150 75 175 75 200V250C75 275 100 300 125 300H175C200 300 225 275 225 250V200C225 175 200 150 175 150H125Z" fill="#1A2B42"/>
<path d="M125 300C150 300 175 275 175 250V200C175 175 150 150 125 150H75C50 150 25 175 25 200V250C25 275 50 300 75 300H125Z" fill="#1A2B42"/>
</svg>